<svg width="72" height="72" viewBox="0 0 72 72" fill="none" xmlns="http://www.w3.org/2000/svg">
<path d="M36.0001 0C16.1178 0 0 16.1178 0 36.0001C0 55.8824 16.1178 72.0002 36.0001 72.0002C55.8824 72.0002 72.0002 55.8824 72.0002 36.0001C72.0002 16.1178 55.8822 0 36.0001 0ZM56.4531 41.1609H29.1186L35.5811 47.8192C37.5661 49.8647 37.5174 53.132 35.4724 55.1169C33.4269 57.1023 30.1597 57.0532 28.1747 55.0082L13.2147 39.5945C12.2431 38.5934 11.7572 37.2968 11.7572 35.9999C11.7572 34.703 12.2431 33.4068 13.2147 32.4057L28.1747 16.9918C30.1597 14.9463 33.4269 14.8974 35.4719 16.8828C37.5181 18.8678 37.5663 22.1357 35.5809 24.1801L29.1182 30.8391H56.4531C59.3034 30.8391 61.6139 33.1496 61.6139 35.9999C61.6139 38.8502 59.3034 41.1607 56.4531 41.1607V41.1609Z" fill="#FFF2D2"/>
</svg>
