<svg width="72" height="72" viewBox="0 0 72 72" fill="none" xmlns="http://www.w3.org/2000/svg">
<path d="M36.0072 0C16.159 0 0 16.1445 0 35.9928C0 55.841 16.159 72 36.0072 72C55.8554 72 72 55.841 72 35.9928C72 16.1445 55.8561 0 36.0072 0ZM50.2314 43.839C51.9967 45.6044 51.9967 48.466 50.2314 50.2314C48.466 51.9967 45.6044 51.9967 43.839 50.2314L35.9997 42.392L28.1603 50.2314C26.3949 51.9967 23.5333 51.9967 21.7679 50.2314C20.0026 48.466 20.0026 45.6044 21.7679 43.839L29.6073 35.9997L21.7679 28.1603C20.0026 26.3949 20.0026 23.5333 21.7679 21.7679C23.5333 20.0026 26.3949 20.0026 28.1603 21.7679L35.9997 29.6073L43.839 21.7679C45.6044 20.0026 48.466 20.0026 50.2314 21.7679C51.9967 23.5333 51.9967 26.3949 50.2314 28.1603L42.392 35.9997L50.2314 43.839Z" fill="#FFF2D2"/>
</svg>
