<svg id="free_icon_1" data-name="free icon 1" xmlns="http://www.w3.org/2000/svg" version="1.1" viewBox="0 0 120.5 84.3"><defs><style>.cls-1{display:none}.cls-1,.cls-2{fill:#fff2d2;stroke-width:0}</style></defs><g id="Groupe_28" data-name="Groupe 28"><path class="cls-2" d="M113.7 17.3c-2.6-7.7-8.8-13.7-16.5-16.2-7.7-2.4-16-.8-22.2 4.2H45.7C39.3.3 31-1.3 23.3 1.1 15.6 3.6 9.5 9.6 6.8 17.3c-7.6 22.1-9 46.1-3.4 58.3 1.4 3.6 4.2 6.5 7.7 8 8.8 3.2 20.3-5.4 30.9-23h36.4c9.2 15.2 19 23.7 27.2 23.7 1.3 0 2.6-.2 3.8-.7 3.6-1.5 6.4-4.4 7.7-8 2.3-5 3.4-12 3.4-19.9 0-11.6-2.3-25.3-6.8-38.4Zm-1.1 56c-.8 2.4-2.6 4.3-4.8 5.3-6.3 2.3-16.7-6.6-25.8-22.1-.4-.8-1.3-1.2-2.1-1.3H40.7c-.9 0-1.7.5-2.1 1.3C29.5 72 19.2 80.9 12.8 78.6c-2.3-1.1-4-3-4.8-5.3C3.1 62.4 4.6 39.6 11.6 19c2.2-6.3 7.2-11.1 13.6-13.1 6.3-1.8 13.1-.3 18 3.9.4.4 1 .6 1.6.6h31c.6 0 1.1-.2 1.6-.6 5-4.2 11.7-5.7 18-3.9 3.2 1 6 2.6 8.4 4.9 2.3 2.2 4.1 5 5.2 8.2 7.1 20.5 8.6 43.4 3.6 54.3Z"/><path class="cls-2" d="M108.9 19.1c-1.1-3.1-2.9-5.9-5.2-8.2-2.3-2.2-5.2-3.9-8.4-4.9-6.3-1.8-13.1-.3-18 3.9-.4.4-1 .6-1.6.6h-31c-.6 0-1.1-.2-1.6-.6-5-4.2-11.7-5.7-18-3.9-6.4 1.9-11.4 6.8-13.6 13.1-7.1 20.5-8.6 43.4-3.6 54.3.8 2.4 2.6 4.3 4.8 5.3C19 81 29.4 72.1 38.5 56.6c.4-.8 1.3-1.2 2.1-1.3h39.2c.9 0 1.7.5 2.1 1.3C91 72.1 101.3 81 107.7 78.7c2.3-1.1 4-3 4.8-5.3 4.9-10.9 3.4-33.7-3.6-54.3ZM38.7 36.7H35v3.5c0 3.2-2.6 5.9-5.8 5.9s-5.8-2.6-5.8-5.8v-3.5h-3.5c-3.2 0-5.9-2.5-5.9-5.8 0-3.2 2.5-5.9 5.8-5.9h3.6v-3.5c0-3.2 2.5-5.9 5.8-5.9 3.2 0 5.9 2.5 5.9 5.8v3.7h3.5c3.2 0 5.9 2.5 5.9 5.8 0 3.2-2.5 5.9-5.8 5.9Zm50.6-21.9c3.2 0 5.8 2.6 5.8 5.8s-2.6 5.8-5.8 5.8-5.9-2.6-5.9-5.8 2.6-5.8 5.9-5.8ZM64.9 47.1h-9.3c-1.3 0-2.3-1-2.3-2.3s1.1-2.3 2.3-2.3h9.3c1.3 0 2.3 1 2.3 2.3s-1 2.3-2.3 2.3Zm14.3-9.8c-3.2 0-5.8-2.6-5.8-5.9s2.6-5.8 5.8-5.8 5.8 2.6 5.8 5.8-2.6 5.9-5.8 5.9ZM89.3 48c-3.2 0-5.9-2.6-5.9-5.8s2.6-5.8 5.9-5.8 5.8 2.6 5.8 5.8-2.6 5.8-5.8 5.8Zm11.3-10.7c-3.2 0-5.8-2.6-5.8-5.9s2.6-5.8 5.8-5.8 5.9 2.6 5.9 5.8-2.6 5.9-5.9 5.9Z"/></g></svg>


