<svg id="free_icon_1" data-name="free icon 1" xmlns="http://www.w3.org/2000/svg" version="1.1" viewBox="0 0 121.2 121.1"><defs><style>.cls-1{fill:none;stroke:#fff2d2;stroke-miterlimit:10}.cls-2{fill:#fff2d2;stroke-width:0}</style></defs><path id="id_101" data-name="id 101" class="cls-1" d="m118.2 14.9-10.5-2.4c-1-.3-2.1.4-2.4 1.4-.3 1 .4 2.1 1.4 2.4l5.8 1.3-12.7 7.8L61.9 2.3c-.6-.4-1.4-.4-2 0l-38 23.1-12.7-7.7 5.8-1.3c1.1-.2 1.7-1.3 1.5-2.3-.2-1.1-1.3-1.7-2.3-1.5L3.7 15c-.8.2-1.4.8-1.5 1.6v.7l2.4 10.4c.2.9 1 1.5 1.9 1.5h.4c1-.2 1.7-1.3 1.5-2.3S7 21 7 21l12.9 7.9v46.4c0 .7.3 1.3.9 1.7l38 23.2V113l-4.3-4.3c-.8-.8-2-.8-2.8 0-.8.8-.8 2 0 2.8l7.6 7.6c.8.8 2 .8 2.8 0l7.6-7.6c.8-.8.8-2 0-2.8-.8-.8-2-.8-2.8 0l-4.3 4.3v-12.8l38-23.2c.6-.3.9-1 .9-1.7V28.8l13-7.9-1.4 6c-.2 1.1.4 2.1 1.5 2.3h.4c.9 0 1.7-.6 1.9-1.5l2.4-10.5c.2-1.1-.4-2.1-1.5-2.3ZM59 95.4 23.9 74V31.2L59 52.6v42.9Zm1.9-46.2-6.5-4-28.7-17.5L60.9 6.2l35.2 21.5-24.7 15.1-10.5 6.4Zm37 24.9L62.8 95.5V52.6l35.1-21.4v42.9Z"/><path class="cls-2" d="M62.9 52.6v42.9L98 74.1V31.2L62.9 52.6Zm32.7 18.9c0 .7-.3 1.3-.9 1.7L74.4 85.9c-.3.2-.7.3-1 .3-.7 0-1.3-.3-1.7-.9-.6-.9-.3-2.1.6-2.7l19.4-12.1V47.9c0-1.1.9-2 1.9-2s2 .9 2 2v23.6ZM59 52.6v42.8L23.9 74.1V31.2L59 52.6zM96.1 27.7 71.4 42.8l-10.5 6.4-6.5-4-28.7-17.5L60.9 6.2l35.2 21.5z"/><path class="cls-1" d="M95.6 47.9v23.6c0 .7-.3 1.3-.9 1.7L74.4 85.9c-.3.2-.7.3-1 .3-.7 0-1.3-.3-1.7-.9-.6-.9-.3-2.1.6-2.7l19.4-12.1V47.9c0-1.1.9-2 1.9-2s2 .9 2 2Z"/></svg>