<svg id="Calque_1" data-name="Calque 1" xmlns="http://www.w3.org/2000/svg" version="1.1" viewBox="0 0 96.6 116.1"><defs><style>.cls-1{display:none}.cls-1,.cls-2{fill:#fff2d2;stroke-width:0}</style></defs><g id="Groupe_44" data-name="Groupe 44"><path id="id_101" data-name="id 101" class="cls-2" d="M96.3 24.8H83.7l-1.5-1.2L53.4 0 24.2 23.6l-1.5 1.2H9.8v71.8H.5L.2 99c-.1.8-.2 1.7-.2 2.5 0 3.5.9 6.9 2.8 9.9 1.8 2.8 4.7 4.5 8 4.6H85v-.4c.3 0 .5.4.8.4 3.3 0 6.2-1.8 8-4.5 1.9-3 2.8-6.5 2.8-10s-.3-76.7-.3-76.7Zm-43-17.7 21.6 17.7H31.5L53.3 7.1ZM10.9 110.6c-1.2 0-2.4-.7-3.5-2.2-1.1-1.9-1.7-4-1.7-6.1h4.1c0 .1 5.5.1 5.5.1 0-.1 59.8-.1 59.8-.1v.5c0 2.8.9 5.5 2.4 7.9H10.9Zm78.3-2.1c-.7 1.3-2 2.1-3.4 2.1s-2.7-.8-3.5-2.1c-1.1-1.7-1.7-3.7-1.7-5.8v-6H15.3V30.4h75.5l.3 71.1c0 2.5-.6 4.9-1.8 7Z"/><path id="id_102" data-name="id 102" class="cls-2" d="M23 52.3v35.5h60V52.3H23Zm54.4 29.9H28.5V57.7h49v24.5Z"/><path class="cls-2" d="M28.5 57.8h49v24.5h-49zM22.8 38.7H83v5.5H22.8z"/></g></svg>


